# Blender v2.79 (sub 0) OBJ File: 'nuts.blend'
# www.blender.org
mtllib nuts.mtl
o Nut_Cylinder
v 0.166531 -0.077937 -0.166531
v -0.000000 0.073254 -0.132831
v 0.166531 -0.077937 0.166531
v 0.093925 0.073254 -0.093925
v -0.000000 -0.077937 0.235510
v 0.132830 0.073254 0.000000
v -0.166531 -0.077937 0.166531
v 0.093925 0.073254 0.093925
v -0.235510 -0.077937 0.000000
v -0.000000 0.073254 0.132831
v -0.000000 -0.077937 -0.235510
v -0.093925 0.073254 0.093925
v -0.166531 -0.077937 -0.166531
v -0.093925 0.073254 -0.093925
v -0.235510 0.073254 -0.000000
v 0.166531 0.073254 -0.166531
v -0.000000 0.073254 -0.235510
v 0.235510 0.073254 0.000000
v 0.166531 0.073254 0.166531
v -0.000000 0.073254 0.235510
v -0.166531 0.073254 0.166531
v -0.166531 0.073254 -0.166531
v -0.132831 0.073254 -0.000000
v -0.000000 -0.002125 -0.235510
v -0.166531 -0.002125 0.166531
v 0.235510 -0.077937 -0.000000
v 0.093925 -0.077937 -0.093925
v 0.093925 -0.077937 0.093925
v -0.000000 -0.077937 0.132831
v -0.093925 -0.077937 0.093925
v -0.132831 -0.077937 0.000000
v -0.093925 -0.077937 -0.093925
v -0.000000 -0.077937 -0.132831
v 0.132830 -0.077937 -0.000000
v -0.166531 -0.002125 -0.166531
v -0.235510 -0.002125 -0.000000
v -0.000000 -0.002125 0.235510
v 0.166531 -0.002125 0.166531
v 0.166531 -0.002125 -0.166531
v 0.235510 -0.002125 0.000000
vn 0.0000 0.0000 -1.0000
vn 0.0000 0.6302 -0.7764
vn 0.5490 0.6302 -0.5490
vn 0.7071 0.0000 -0.7071
vn 0.7764 0.6302 0.0000
vn 1.0000 0.0000 0.0000
vn 0.5490 0.6302 0.5490
vn 0.7071 0.0000 0.7071
vn 0.0000 0.6302 0.7764
vn 0.0000 0.0000 1.0000
vn -0.5490 0.6302 0.5490
vn -0.7071 0.0000 0.7071
vn -0.7764 0.6302 0.0000
vn -1.0000 0.0000 0.0000
vn -0.5490 0.6302 -0.5490
vn -0.7071 0.0000 -0.7071
vn 0.4203 -0.8042 -0.4203
vn 0.0000 -0.8042 -0.5943
vn 0.0000 -0.6302 0.7764
vn -0.5490 -0.6302 0.5490
vn 0.0000 0.8042 0.5943
vn -0.4203 0.8042 0.4203
vn -0.5943 0.8042 0.0000
vn -0.4203 0.8042 -0.4203
vn 0.0000 0.8042 -0.5943
vn 0.4203 0.8042 -0.4203
vn 0.4203 0.8042 0.4203
vn 0.5943 0.8042 0.0000
vn 0.0000 -0.6302 -0.7764
vn -0.5490 -0.6302 -0.5490
vn -0.7764 -0.6302 0.0000
vn 0.5490 -0.6302 0.5490
vn 0.7764 -0.6302 0.0000
vn 0.5490 -0.6302 -0.5490
vn -0.4203 -0.8042 -0.4203
vn 0.4203 -0.8042 0.4203
vn 0.5943 -0.8042 0.0000
vn 0.0000 -0.8042 0.5943
vn -0.4203 -0.8042 0.4203
vn -0.5943 -0.8042 0.0000
usemtl None
s 1
f 24//1 17//2 16//3 39//4
f 39//4 16//3 18//5 40//6
f 40//6 18//5 19//7 38//8
f 38//8 19//7 20//9 37//10
f 37//10 20//9 21//11 25//12
f 25//12 21//11 15//13 36//14
f 36//14 15//13 22//15 35//16
f 35//16 22//15 17//2 24//1
f 30//17 29//18 5//19 7//20
f 2//21 4//22 16//3 17//2
f 4//22 6//23 18//5 16//3
f 6//23 8//24 19//7 18//5
f 8//24 10//25 20//9 19//7
f 10//25 12//26 21//11 20//9
f 14//27 2//21 17//2 22//15
f 12//26 23//28 15//13 21//11
f 23//28 14//27 22//15 15//13
f 24//1 11//29 13//30 35//16
f 35//16 13//30 9//31 36//14
f 36//14 9//31 7//20 25//12
f 25//12 7//20 5//19 37//10
f 37//10 5//19 3//32 38//8
f 38//8 3//32 26//33 40//6
f 40//6 26//33 1//34 39//4
f 29//18 28//35 3//32 5//19
f 32//36 31//37 9//31 13//30
f 33//38 32//36 13//30 11//29
f 39//4 1//34 11//29 24//1
f 31//37 30//17 7//20 9//31
f 27//39 33//38 11//29 1//34
f 28//35 34//40 26//33 3//32
f 34//40 27//39 1//34 26//33
f 27//39 34//40 6//23 4//22
f 34//40 28//35 8//24 6//23
f 28//35 29//18 10//25 8//24
f 29//18 30//17 12//26 10//25
f 14//27 23//28 31//37 32//36
f 2//21 14//27 32//36 33//38
f 33//38 27//39 4//22 2//21
f 23//28 12//26 30//17 31//37
